<?xml version="1.0" encoding="utf-8"?>
<!-- Generator: Adobe Illustrator 25.4.1, SVG Export Plug-In . SVG Version: 6.00 Build 0)  -->
<svg version="1.1" id="Capa_1" xmlns="http://www.w3.org/2000/svg" xmlns:xlink="http://www.w3.org/1999/xlink" x="0px" y="0px"
	 viewBox="0 0 2388.7 1342" style="enable-background:new 0 0 2388.7 1342;" xml:space="preserve">
<style type="text/css">
	.st0{fill:#A1C797;}
	.st1{fill:#A0D4D8;}
	.st2{fill:#9D958E;}
	.st3{fill:#FEAB60;}
</style>
<g>
	<path class="st0" d="M59.1,789c9.1-55.2,18.4-108.7,26.5-162.4c1.8-11.9,7.9-14.7,17.9-16.2c95.5-14.2,191.6-12.9,287.6-10.6
		c102,2.4,204,8.5,305.9,13c12.8,0.6,19.4,5.8,19.1,19.7c-0.5,26.7,0.6,53.4,0,80.1c-0.9,40.2-13.3,56.8-51.2,69.9
		c-53.3,18.4-108.9,21.4-164.4,21.9C357.4,805.8,214.7,798,72,790.9C67.9,790.7,63.9,789.7,59.1,789z"/>
	<path class="st1" d="M747.9,337.6c14.3,33,15.4,66.3,14.5,99.7c-0.4,13.6-2.4,27.4-5.8,40.6c-16,61.8-30,69.9-100.5,78.1
		c-102.7,11.9-204.6,1-306.7-5.9c-30-2-60.1-2.8-90.2-3.7c-8.8-0.3-13.7-2.8-13-12.6c2.2-35,3.4-70,6.3-105
		c2.9-35.3,36.4-67.3,83.2-71.6c69.7-6.4,139.9-7.6,209.8-10.8C612.4,343.3,679.3,340.5,747.9,337.6z"/>
	<path class="st2" d="M1795.1,145.8V571h-69.3c-66.6-99.5-133.8-199.7-203.5-303.9v303.8h-72.5v-100c-0.2-106.8-0.3-213.7-0.4-320.5
		c0-1.5,0.3-2.9,0.6-5h69.3c66.7,99.8,133.6,199.9,202.1,302.4V145.8H1795.1z"/>
	<path class="st3" d="M739.2,290.5c-67.3,3.6-133.8,7.2-200.4,10.8c-22.1,1.2-44.1,2.3-66.2,3.8c-34.2,2.4-60.4-20.7-57.2-55.1
		c4.4-47.7,12.4-95.1,19-143.8c38.3,0,76,0,113.7,0c53.4,0,106.9,0.7,160.3-0.4c18.3-0.4,26.7,8.1,30.7,23.8
		c10.9,42.5,6.6,85.6,3.6,128.5C742,268.3,740.5,278.5,739.2,290.5z"/>
	<path class="st2" d="M2160.9,509.6v61.2h-276V386.2c0.3,1.9,0.5,3.7,0.7,5.6c0-1.9,0-3.8-0.7-5.6V145.5h269.9v61.6h-195.2v117.6
		h176.9c1.1,20.5,2.2,41,3.4,62.8h-180.4v122.1H2160.9z"/>
	<path class="st2" d="M1779.4,764.3c7.1,0,13.2,0,20.9,0c30,44.5,60.7,89.8,92.9,137.6c0-47.2,0-91.9,0-137.2c8.3,0,15.3,0,22.9,0
		c0,58.9,0,117.5,0,176.9c-7.1,0-14.1,0-21.8,0c-29.8-44.2-60-88.9-91.9-136.3c0,47.3,0,91.3,0,136.2c-7.9,0-14.9,0-22.9,0
		C1779.4,883.1,1779.4,824.2,1779.4,764.3z"/>
	<path class="st2" d="M1130.1,1046.8c0,7.4,0,12.7,0,18.9c-28.4,0-56.5,0-85.5,0c0,19.4,0,37.8,0,57.6c25.4,0,51.1,0,77.3,0
		c0,7.2,0,13.2,0,20.1c-25.7,0-51.1,0-77.4,0c0,20.2,0,39.4,0,60c28.8,0,57.9,0,87.6,0c0,7.3,0,13.2,0,19.9c-37.1,0-73.9,0-111.3,0
		c0-58.9,0-117.5,0-176.6C1057.5,1046.8,1093.7,1046.8,1130.1,1046.8z"/>
	<path class="st2" d="M2086.6,1223.8c-7.4,0-14.2,0-22.9,0c0-26-0.4-51.8,0.1-77.5c0.4-19.7-6.2-34.2-27.8-33.1
		c-21.1,1.1-36.1,12.5-36.8,35.6c-0.7,24.7-0.2,49.4-0.2,74.7c-7.6,0-14.3,0-21.9,0c0-42.1,0-84.1,0-126.9c4.5,0,8.9,0,14.6,0
		c1.2,5.1,2.5,10.8,4.2,17.8c12.1-11.7,24.7-20.4,41.7-21.2c28.4-1.4,46.8,12.2,48.5,40.7C2088,1163.5,2086.6,1193.2,2086.6,1223.8z
		"/>
	<path class="st2" d="M1302.1,1096.5c8,0,14.8,0,23.1,0c0,26,0.1,51.7,0,77.5c-0.1,18,5.5,32,26.1,33.2
		c17.8,1.1,36.4-17.3,36.5-35.2c0.1-24.8,0-49.5,0-75.1c7.8,0,15.1,0,22.9,0c0,42.1,0,83.9,0,126.5c-5.1,0-9.8,0-15.2,0
		c-1.3-5.8-2.6-11.7-3.9-17.6c-6.8,5-13,11-20.5,14.8c-34.2,17.6-67.3-1.1-68.8-39.3C1301.2,1153.4,1302.1,1125.6,1302.1,1096.5z"/>
	<path class="st2" d="M2188,942.1c-9.8,0-17.4,0-26.5,0c-11.1-16.2-22.9-33.3-35.2-51.3c-12.4,18-24.1,34.8-35.6,51.4
		c-7.6,0-14.4,0-23.7,0c15.7-22.4,30.5-43.7,46-66c-14.1-20-28.2-40.1-43-61.3c9.1,0,16.9,0,26.4,0c9.9,14.4,20.6,30,32,46.5
		c11.6-16.4,22.6-31.8,33.3-47c7.6,0,14.5,0,23.7,0c-14.9,21-29,40.8-43.7,61.5C2156.9,897.6,2171.8,919,2188,942.1z"/>
	<path class="st2" d="M1533,1102c0,5.4,0,11,0,17.5c-23.7-8.3-48.5-15.8-64.1,9.5c-12.6,20.4-12.4,45.5,2.3,64.8
		c17.4,23,41.7,12.4,64.6,5.3c0,6.2,0,12,0,17.9c-25.7,16-65.8,11.9-83.1-8.5c-19.5-23-19.6-73.6-0.2-96.3
		C1470.2,1091.2,1507.1,1086.5,1533,1102z"/>
	<path class="st2" d="M1501.1,820.4c0,5.7,0,11,0,17.5c-24.1-7.8-49.7-16.4-65.1,11.1c-11.5,20.4-11.5,44.9,3.3,63.8
		c17.8,22.7,41.9,11.8,64.6,4.8c0,6,0,11.6,0,17.3c-21.8,16-62.7,13.2-81.1-5.8c-20.6-21.2-23-71.6-4.5-96.1
		C1435.5,810.2,1471.7,804.4,1501.1,820.4z"/>
	<path class="st2" d="M2239.6,833.2c0,25.8-0.8,50.1,0.3,74.4c0.7,17.2,15.1,14.7,27.3,14.9c0,6.5,0,12.5,0,18.5
		c-30.4,9.4-50.4-5.1-50.4-36.7c0-23.2,0-46.4,0-70.3c-7.6-0.4-14.4-0.7-22.1-1.1c-0.2-3.8-0.4-7.4-0.6-11.3c7.4-2.6,14.2-5,22-7.8
		c2.8-10.5,5.8-21.7,9-33.7c4.4,0,8.8,0,14.2,0c0,10.9,0,21.9,0,34c9.5,0,18,0,27.2,0c0,6.7,0,12.2,0,19.2
		C2257.6,833.2,2249.1,833.2,2239.6,833.2z"/>
	<path class="st2" d="M1718.3,1113.8c0,25.4-0.3,48.6,0.1,71.8c0.3,18.4,12.8,20.1,28,17.9c0,6.8,0,13,0,19.3
		c-33.7,7.8-51.3-5.8-51.4-40.1c-0.1-21.7-0.1-43.4-0.2-65.2c0-0.7-0.5-1.4-1.1-3c-6,0-12.3,0-19.2,0c0-4.5,0-8.1,0-12
		c7-2.5,13.7-5,20.8-7.6c2.9-11.1,5.8-22,8.7-33.5c4.4,0,8.5,0,13.8,0c0,11,0,21.8,0,34.1c9.6,0,18.1,0,27.2,0c0,6.5,0,11.7,0,18.2
		C1736.7,1113.8,1728.2,1113.8,1718.3,1113.8z"/>
	<path class="st2" d="M1530.3,778.1c-5.4-6.5-16.6-7.2-11.6-18.8c10.6,0,21.5,0,33.1,0c0,60.6,0,121.3,0,182.6c-7,0-13.7,0-21.5,0
		C1530.3,886.8,1530.3,831.8,1530.3,778.1z"/>
	<path class="st2" d="M1219.7,942c-4.7,0-11.5,0-19,0c0-42.3,0-84.4,0-127.1c5,0,9.8,0,15.2,0c1.4,6.2,2.9,12.4,4.6,20.1
		c11.2-15.3,24.1-24,43.3-19.7c0,6.2,0,12.4,0,17C1194.8,848.6,1236.7,905.4,1219.7,942z"/>
	<path class="st2" d="M1799.1,1223.9c-7.4,0-13.8,0-21.4,0c0-36.7,0-73.1,0-108.3c-5-6.8-16.6-7.4-11.8-18.9c10.5,0,21.4,0,33.1,0
		C1799.1,1138.7,1799.1,1180.8,1799.1,1223.9z"/>
	<path class="st2" d="M1799.3,1046.9c0,7.3,0,13.6,0,20.6c-8.7,0-17,0-26.1,0c0-6.6,0-13.2,0-20.6
		C1781.5,1046.9,1790,1046.9,1799.3,1046.9z"/>
	<path class="st2" d="M1200.7,137.6c-83.2-10.3-157.7,28.3-191,99.9c-24.7,53.2-27.1,109.8-20.3,166.8
		c8.5,71.8,36.6,133.5,108.9,159.9c75.8,27.7,151.5,25.8,215.8-30.4c52.8-46.1,61.8-110.3,62.8-164.2
		C1376.9,224.2,1319.4,152.3,1200.7,137.6z M1288.6,444.2c-17.3,48-55,72.6-109.1,71.6c-54.1-1-90.1-25.7-105.7-75.9
		c-16.9-54.5-16.9-109.8,0.5-164.2c16.3-51,59.9-78.8,113.7-75.1c59.8,4.1,97,37.8,107.9,99c3.5,19.4,4.6,39.3,6.7,58.9
		C1301.5,387.9,1298.5,416.6,1288.6,444.2z"/>
	<path class="st2" d="M1139.1,775.4c-28.1-19.4-59.5-19.9-88.6-3.8c-34.1,19-38.7,53.6-37.6,88.4c1,30.5,8.4,59.3,38.2,75.6
		c60.5,33.2,119.4-7.4,119.5-86.3C1170.1,823.5,1166.1,794.1,1139.1,775.4z M1074.6,922c-24.9-6.9-37.6-30.4-37.6-69.6
		c0-53.1,28-79.5,71.9-67.8c23.6,6.3,36,27.8,38,66.2C1149.8,903.2,1118.4,934.1,1074.6,922z"/>
	<path class="st2" d="M1244.9,1041.2c0,21.7,0,42.6,0,64.9c-35.9-18.5-63.5-16-79.9,6.1c-19.3,26.1-17.5,77.4,3.6,99.5
		c19.8,20.7,45,19.5,80.2-4.3c1.3,5.6,2.5,10.9,3.7,15.9c5.6,0,10.4,0,15.1,0c0-61.3,0-121.8,0-182.2
		C1259.7,1041.2,1252.6,1041.2,1244.9,1041.2z M1209.6,1207.5c-21.3,0.3-34.3-17.7-34.3-47.6c0-30.6,12.7-48,35.1-48
		c25.3-0.1,34.4,12.1,34.4,46C1244.8,1192.2,1234.2,1207.1,1209.6,1207.5z"/>
	<path class="st2" d="M1690.1,859c-1.6-21.4-10.1-38.9-32.5-44.5c-23.9-5.9-47.4-5-64.7,16.1c-18.8,23-17.2,74.5,2.4,96.5
		c18.2,20.5,62.1,24.6,89.3,8.1c0-5.8,0-11.6,0-17.7c-61.4,12.4-79.8,5-80-32.2c28.1,0,56.3,0,85.7,0
		C1690.2,875.6,1690.8,867.3,1690.1,859z M1603.7,866.6c1.4-21.7,11.1-35.4,33.7-36c23.8-0.6,31.3,14.4,31.1,36
		C1647.2,866.6,1625.9,866.6,1603.7,866.6z"/>
	<path class="st2" d="M2055.7,885.3c4.6-56.9-23.6-84.7-70.8-71.7c-23.2,6.4-35.1,22.8-37.7,45c-3.3,28.3-4.6,58.1,23.1,76.3
		c25.3,16.6,52.7,11.5,79.3,1.9c0-7.3,0-13.2,0-19.2c-58.6,13-79.9,4.6-79.8-32.3c15,0,29.1,0,43.1,0
		C2027.2,885.3,2041.5,885.3,2055.7,885.3z M1969.2,866.6c1.3-21.6,10.9-35.4,33.1-36c23.3-0.6,32.4,13,31.3,36
		C2011.7,866.6,1990.8,866.6,1969.2,866.6z"/>
	<path class="st2" d="M1379.8,847.6c-0.5-14.9-8.1-27.3-23.3-32.1c-23.4-7.3-46.3-4.2-68.7,4.9c0,6.4,0,12,0,17.7
		c63.2-10.7,72-7.7,69,23.8c-29.2,3.3-65.4-9.5-79.1,31.4c-5.7,17.1-1.4,33.7,13.9,43.5c25,16,48.2,9,69.2-11.6
		c1.5,6.5,2.7,11.5,3.9,16.8c5.1,0,9.6,0,15.4,0C1380.1,910,1380.8,878.8,1379.8,847.6z M1337,922.4c-11.5,5.3-22.9,6.8-32.3-3.7
		c-7.4-8.2-8.5-19.1-2.5-27.5c14.4-19.7,35.9-9.4,54.3-12.2C1361.3,899.7,1355.2,914,1337,922.4z"/>
	<path class="st2" d="M1656.5,1127.2c-0.5-15.2-9.8-26.6-24.9-30.9c-22.8-6.4-44.9-3.3-66.6,5.5c0,6.4,0,12,0,17.6
		c64.3-9.6,73.5-6.4,67.7,24.1c-28.7,3.5-64.7-9.6-77.9,31.3c-5.5,17.1-1.5,33.6,14,43.5c25.2,16,48.3,9.1,69-12
		c1.6,6.8,2.9,12.1,4.1,17.2c5.4,0,9.9,0,15,0C1656.9,1191,1657.7,1159.1,1656.5,1127.2z M1599.6,1207.9c-15.5,0.1-25.8-9.5-23-24.5
		c6.8-35.9,36.7-16.8,57.3-23.9C1636.8,1188.7,1622.9,1207.7,1599.6,1207.9z"/>
	<path class="st2" d="M1889.1,1093c-36.3-0.5-60.6,23.3-61.6,60.3c-1.1,46.1,19.8,72.5,57.9,73.1c40.8,0.6,63.1-22.4,64-66
		C1950.2,1118.6,1927.9,1093.6,1889.1,1093z M1887.7,1207.4c-23.8-0.4-37-17.7-36.8-48.2c0.2-30.5,13.5-47.3,37.5-47.2
		c24.3,0.1,37.6,17.3,37.4,48.6C1925.7,1190.6,1911.7,1207.8,1887.7,1207.4z"/>
</g>
</svg>
