<?xml version="1.0" encoding="utf-8"?>
<!-- Generator: Adobe Illustrator 25.4.1, SVG Export Plug-In . SVG Version: 6.00 Build 0)  -->
<svg version="1.1" id="Capa_1" xmlns="http://www.w3.org/2000/svg" xmlns:xlink="http://www.w3.org/1999/xlink" x="0px" y="0px"
	 viewBox="0 0 2451.1 1780.5" style="enable-background:new 0 0 2451.1 1780.5;" xml:space="preserve">
<g>
	<path d="M1876.1,709.2c0-180.1,0-360.2,0-540.3c0-15.6,0.2-15.7,15.9-15.7c74,0,148,0.3,222-0.2c13.6-0.1,26.4,3.3,38.6,7.5
		c13.6,4.6,25.9,13.1,36.8,23c17.9,16.2,31.9,35.4,42.9,56.6c6.8,13.1,11.6,27.3,16.7,41.3c3.5,9.6,6.2,19.6,9,29.4
		c0.9,3.3,1.3,6.8,1.3,10.1c0,260.1-0.1,520.2,0.2,780.3c0,16-3.6,31.2-5.5,46.8c-0.8,6.3-4.1,12.5-6.8,18.5
		c-13.2,28.9-32.9,52.2-59.6,69.4c-9.8,6.3-19.6,13-30.3,17.7c-11.8,5.2-23.5,10.2-37.5,10.1c-75.7-0.7-151.5-0.4-227.2-0.3
		c-16.4,0-16.6,0.8-16.6-16.4c0.1-137.9,0.1-275.9,0.1-413.8C1876.1,791.8,1876.1,750.5,1876.1,709.2z M2006.1,708
		C2006.1,708,2006,708,2006.1,708c-0.1,135.3-0.1,270.7-0.1,406c0,10.1,2.3,13.2,11.8,14.4c9.1,1.2,18.2,2.6,27.3,2.5
		c9.4-0.1,18.8-1.6,28.1-3.1c9-1.5,18.1-2.3,26-8c8.7-6.3,14.6-13.6,13.1-25.1c-0.5-3.7-0.3-7.4-0.3-11.2c0-248.3,0-496.6,0-744.9
		c0-5.7,0.4-11.5,0.5-17.2c0-4.1-0.5-8.3-4.3-10.7c-4.1-2.6-8.3-5.1-12.8-6.9c-12-4.9-24.3-7.9-37.4-8.5c-13.4-0.6-26.7-2.8-40-4.5
		c-8.4-1-11.8,1.7-12,10.2c-0.1,4,0.2,8,0.2,12C2006.1,444.8,2006.1,576.4,2006.1,708z"/>
	<path d="M1372.2,771.7c0,160.3,0,320.6,0,480.9c0,9.2-1.2,10.6-10.3,10.6c-37,0.1-74,0.1-111,0c-9.1,0-10.2-1.3-10.2-10.7
		c0-116.4,0-232.8,0.1-349.3c0-7.2,0.4-14.3,0.6-21.5c0.2-8.8-2.1-11.1-11.1-11.1c-27.5,0-55.1,0-82.6,0c-9.9,0-12,2.2-12,12.2
		c0.1,72.5,0.1,145.1,0.2,217.6c0.1,51,0.2,102.1,0.3,153.1c0,6.9-1.5,8.8-8.2,9.4c-2.6,0.3-5.2,0.2-7.7,0.2c-33.9,0-67.7,0-101.6,0
		c-0.9,0-1.7,0-2.6,0c-9.7-0.2-11.1-1.6-11.1-11c0-3.2,0.1-6.3,0.1-9.5c0-313.7-0.1-627.4,0.1-941.1c0-12.2,0.9-24.5,6.2-36.1
		c3.6-7.8,5.3-16.3,8.7-24.2c14.5-34.2,35.1-63.5,67.8-83c9.1-5.4,18.4-10,28.2-14.1c26.4-11.1,53.8-14.6,82.1-13.4
		c6.6,0.3,13.2,0,19.8,0.6c19.9,1.7,39.1,7.2,57,15.2c21.9,9.8,40,25.2,55.5,43.8c10.6,12.7,19.1,26.8,25,41.8
		c9.5,23.9,17,48.2,16.9,74.8C1371.8,462,1372.1,616.9,1372.2,771.7C1372.1,771.7,1372.1,771.7,1372.2,771.7z M1240.8,523.6
		c0-47.6-0.1-95.2,0-142.8c0-17.8,0.7-35.5,0.7-53.3c0-3.5-0.7-7.9-2.8-10.4c-4.7-5.3-9.9-10.7-16-14.1
		c-16.5-9.2-33.9-15.6-53.1-7.8c-0.5,0.2-1.1,0.3-1.7,0.4c-9.9,0.8-17.3,6.8-25.1,12c-7.3,4.9-9.2,11.7-9.1,20
		c0.1,126.1,0.1,252.3,0.1,378.4c0,4.3-0.1,8.6,0,12.9c0.3,9.5,2.9,12.1,12.6,12.1c28.4,0.1,56.8,0.1,85.2,0c7.5,0,9.8-2.3,9.9-9.8
		c0-6-0.5-12-0.5-18C1240.8,643.4,1240.8,583.5,1240.8,523.6z"/>
	<path d="M563.4,634.7c0-155.4,0-310.8,0-466.2c0-1.1,0-2.3,0-3.4c0.3-10.1,2.1-11.8,12.3-11.8c33.6,0,67.1,0,100.7,0
		c2.3,0,4.6-0.2,6.9,0.1c5.3,0.6,7.6,2.9,8.3,8.2c0.3,2.3,0.2,4.6,0.2,6.9c0,306.8,0,613.6-0.2,920.4c0,10.2,3.3,17.5,10.8,23.9
		c11,9.2,23.6,13.6,37.9,13.9c20.2,0.4,35.8-8.5,48.8-22.9c2.2-2.5,3.4-6.7,3.4-10.1c0-188.9-0.2-377.9-0.3-566.8
		c-0.1-119.3,0-238.5,0-357.8c0-15.7,0.1-15.6,15.9-15.6c39,0,78,0,117,0c2.6,0,5.2-0.1,7.7,0.1c7.4,0.5,9.5,2.6,9.8,10.1
		c0.2,4.9,0,9.7,0,14.6c0,302.2-0.1,604.4,0.3,906.6c0,15-4.6,28.1-9.6,41.3c-6.6,17.3-14.7,34.1-24.1,50.1
		c-11.4,19.6-23.5,38.7-39.8,54.6c-10,9.8-20,19.7-31.1,28.3c-15.2,11.8-32,20.9-51.3,24.9c-9.8,2-19,6.1-29.3,6.5
		c-17.5,0.6-34.9,1.5-51.8-4.9c-7.2-2.7-15-4-22.1-6.9c-25.6-10.7-46.9-27.2-64-49c-12.4-15.8-23.6-32.5-32-50.7
		c-6.4-13.9-13.4-27.8-16.9-43c-1.4-5.8-4.5-11.3-5.4-17.1c-1.4-8.4-2.1-17.1-2.1-25.6C563.4,940.3,563.4,787.5,563.4,634.7
		C563.4,634.7,563.4,634.7,563.4,634.7z"/>
	<path d="M1813.9,768.3c0,156.8,0,313.7,0,470.5c0,5.2,0.2,10.3,0.1,15.5c-0.1,7.2-1.5,8.5-8.5,8.9c-2,0.1-4,0-6,0
		c-32.7,0-65.4,0-98.1,0c-2.6,0-5.2,0.1-7.7-0.1c-7.9-0.5-9.6-2.2-9.6-9.9c0-121,0.1-242,0.1-363c0-4,0.4-8.1,0-12
		c-0.5-5-2.7-6.9-7.8-7.5c-1.1-0.1-2.3-0.1-3.4-0.1c-27.8,0-55.6,0-83.5,0c-8.5,0-10.7,2.2-10.7,10.6c0.2,122.4,0.3,244.9,0.5,367.3
		c0,2,0.2,4,0.1,6c-0.2,6.9-1.6,8.6-8.8,8.6c-37.9,0.1-75.7,0.1-113.6,0c-7.5,0-8.9-1.7-9-9.3c-0.1-5.7,0.1-11.5,0.1-17.2
		c0-310,0-619.9,0-929.9c0-13.2,1.1-25.9,5.6-38.8c3.4-9.9,6.1-20.3,10.4-29.8c5.3-11.7,11.9-22.9,19.1-33.5
		c12.9-19.2,29.2-35.4,49-47.5c14.4-8.7,29.6-16.1,46.4-19.3c9.3-1.8,18.3-5.1,27.6-6c20.6-1.9,41.2-1.7,61.8,0.2
		c4.5,0.4,8.9,2.1,13.3,3.2c5.3,1.2,10.6,2.4,15.9,3.6c1.7,0.4,3.5,0.5,5,1.1c23,9.3,44.4,21.2,61.6,39.4
		c11.8,12.5,21.9,26.4,29.1,42.3c2.4,5.2,5.2,10.2,7.1,15.6c4.1,11.3,8.3,22.6,11.3,34.1c1.8,6.8,2.3,14.2,2.3,21.3
		c0.1,87.5,0.1,174.9,0.1,262.4C1813.9,626.1,1813.9,697.2,1813.9,768.3z M1577.8,520.5c-0.1,0-0.1,0-0.2,0c0,66.2,0,132.5,0,198.7
		c0,9.8,2.2,11.8,12.3,11.8c15.5,0,31-0.1,46.5-0.1c12.3,0,24.7,0.1,37,0.1c8.3-0.1,10.6-2.5,10.8-10.9c0.1-3.7-0.2-7.5-0.2-11.2
		c0-123,0-246,0-369.1c0-4.6,0.3-9.2-0.1-13.8c-0.2-2.7-0.7-6-2.4-8c-8.5-10.3-18.4-18.8-31.9-22.2c-3.3-0.8-6.8-1.5-9.9-2.8
		c-6.5-2.6-12.9-2.3-19.4-0.5c-10.4,2.9-20.9,5.4-30.3,11.4c-8.2,5.2-14.7,10.9-12.6,22c0.6,3.3,0.2,6.9,0.2,10.3
		C1577.9,397.8,1577.8,459.2,1577.8,520.5z"/>
	<path d="M115.3,715.8c0-125.9,0-251.8,0-377.6c0-12.4,1.1-24.4,5.7-36.2c3.1-7.9,4.6-16.4,7.8-24.4c7.3-18.4,15.8-36,27.8-52
		c9.5-12.7,20.4-24,32.3-34.4c11.8-10.3,25.1-18.5,39.5-23.7c9.7-3.5,19.1-9,30.3-8.6c6.4,0.2,12.8-2.8,19.3-3.8
		c20.9-3.3,41.6-2.8,62.4,1.4c4.8,1,9.6,1.6,14.4,2.5c3.1,0.6,6.3,0.9,9.2,2c9.1,3.4,18.2,6.8,27,10.7c18.5,8.2,34.6,19.8,49.1,34
		c16.6,16.3,28.7,35.8,38.1,56.7c4.2,9.2,9.6,18.3,10.1,29c0,0.8,0.3,1.8,0.6,2.5c6.8,12.7,6.2,26.6,6.2,40.3
		c0,62.2,0,124.4,0,186.7c0,0.6,0,1.1,0,1.7c-0.2,8.3-1.9,10-10.3,10c-17.2,0-34.4-0.2-51.6-0.2c-22.1,0-44.2,0-66.3,0
		c-2.6,0-5.2,0.1-7.7-0.1c-7.1-0.6-9.1-2.4-9.1-9.7c-0.1-16.3,0.2-32.7,0-49c-0.1-8-0.9-16-1-24c-0.2-10.9,0.1-21.8-0.1-32.7
		c-0.6-30.6-3.5-61.2-2.4-91.8c0.3-7.6-3-14-9.3-18.5c-8-5.7-16-11.2-26.7-9.7c-3.4,0.5-6.9,0.4-10.3,0
		c-14.8-1.6-24.9,6.9-34.5,16.1c-3.6,3.5-5,8.2-4.9,13.4c0.2,7.7,0.1,15.5,0.1,23.2c0,61.6-0.1,123.3,0.1,184.9c0,6.5,1.3,13,2,19.6
		c0.3,3.1,0.7,6.3,0.7,9.4c0,175.8,0,351.5-0.2,527.3c0,9.3,2.8,16.1,10.8,20.8c6.6,3.9,12.8,8.7,19.8,11.7
		c5.1,2.2,11.1,2.2,16.8,2.8c16.5,1.7,28-6.5,36.3-19.7c2.3-3.6,3.2-8.7,3.2-13c0-45.9-0.3-91.7-0.4-137.6c0-9.5,1.6-11.1,10.9-11.1
		c41,0,82,0,123.1,0c9.5,0,11,1.6,11,11c0,55.9,0.2,111.8-0.2,167.7c-0.1,9.9-2.3,19.9-4.5,29.6c-2.3,10-5.4,19.8-8.8,29.5
		c-9.9,28.5-26.4,52.4-49.7,71.8c-15.5,12.8-32.8,22.3-51.8,27.7c-32.3,9.3-65.5,12.1-98.7,5.8c-19.4-3.7-38.5-9-56-18.4
		c-12.6-6.8-24.4-14.8-35.1-24.5c-17.5-16-32.7-33.9-43.7-54.9c-6.6-12.6-14-24.8-17.8-38.8c-3.1-11.2-7.9-22-11-33.2
		c-1.8-6.5-2.3-13.6-2.4-20.4c-0.2-39.6-0.1-79.1-0.1-118.7C115.3,891.3,115.3,803.6,115.3,715.8z"/>
	<path d="M838,1607.9c-1.3,5.8-2.4,11.6-3.9,17.3c-1.7,6.5-3.6,12.7,1.5,18.7c0.9,1,1.1,3.6,0.4,4.7c-2.2,3.3-4.7,6.4-7.6,9.2
		c-2.2,2.1-5.2,2.8-7.8,0.4c-3.8-3.5-7.9-2.5-12.1-1.5c-5.3,1.2-10.6,2.9-15.9,3.4c-20.6,2-41.4-9.7-49.7-30.2
		c-8.6-21.3-3.7-39.3,8.2-56.5c11-15.9,34.5-20,51.4-15C824.8,1565.1,836.8,1582.8,838,1607.9z M814.9,1606.5
		c-0.5-2.8-0.8-6.3-1.9-9.5c-3.8-10.6-11.6-17.3-22.5-18.7c-8.8-1.1-16.6,2.3-22.6,9.6c-4.5,5.5-6,11.9-6.2,18.4
		c-0.5,16.9,6.4,29,23.9,32.4c2,0.4,5.5-0.7,6.5-2.3c0.9-1.6-0.3-4.6-1-6.9c-0.3-0.9-1.7-1.5-2.5-2.2c-3.3-2.8-3.1-5.9-0.5-9
		c0.9-1.1,1.9-2.1,2.8-3.2c6.5-7.6,6.7-7.6,15-1.5c4.2,3.1,7.8,1.9,8.8-3.1C814.8,1609.5,814.8,1608.3,814.9,1606.5z"/>
	<path d="M1039.2,1437.4c0.3-3.3,0.8-6.6,0.8-9.8c0-10-0.3-20-0.5-30.1c-0.1-3.8-0.2-8.6,3.9-9.5c4.7-1.1,10.1-0.8,14.9,0.3
		c1.6,0.4,2.9,5.3,2.9,8.1c0.3,13.7,0.1,27.5,0.1,41.2c0,12.9,0,25.8,0,38.7c0,4.3,0.2,9.3-4.8,10.9c-5.2,1.7-10.9,2.1-15.2-2.5
		c-2.6-2.7-5-5.5-7.1-8.6c-8.9-12.6-17.7-25.3-26.5-38c-0.8-1.2-1.5-2.5-2.6-3.4c-2.2-2-4.7-1.5-5.5,1.1c-1,3.2-1.3,6.7-1.2,10
		c0.1,10.3,0.7,20.6,0.7,30.9c0,9.1-3.3,11.9-12.1,11.2c-5.5-0.4-7.7-2.3-8.4-7.8c-0.3-2.3-0.2-4.6-0.2-6.9c0-24.9,0-49.8,0-74.7
		c0-2-0.4-4.3,0.3-5.9c1-2.1,2.6-4.6,4.6-5.4c6.6-2.6,14.2-0.4,18.4,5.3c5.9,8.1,11.4,16.5,17.1,24.6c4,5.6,8.1,11.1,12.3,16.4
		c1.5,1.9,3.7,3.2,5.5,4.8C1037.6,1438,1038.4,1437.7,1039.2,1437.4z"/>
	<path d="M724.2,1437.6c-1.3-15.6,5.6-27.6,14.4-38.2c4.9-5.9,11.9-10.7,20.2-12.1c2.5-0.4,5.1-1,7.5-1.8c4.5-1.7,8.9-1.5,13.4,0.1
		c1.9,0.7,3.8,1.2,5.8,1.5c18.6,3.5,28.7,15.4,34.6,32.8c4.7,13.7,3.3,26.7-1.8,39.4c-4.6,11.6-11.8,21.3-24.8,25.7
		c-7,2.4-13.5,5.5-21.4,5.2c-17.3-0.7-37.2-13.9-43.5-30.1C725.8,1452.4,723,1445,724.2,1437.6z M800.1,1436.1
		c1.8-9.4-4.5-16.4-11.4-23.2c-7.3-7.2-22.9-8-30.6-1.1c-10.6,9.6-13,21.7-9.8,35.2c2.6,10.8,9.5,17.5,20.4,19.4
		c10.6,1.8,19.6-1,26.2-10.4C798.9,1450.2,800.2,1444.1,800.1,1436.1z"/>
	<path d="M1449,1608.3c0-12.9-0.1-25.8,0-38.7c0-7.5,2.1-10.2,9.5-10.2c15.2-0.2,30.4,0.4,45.5,0.4c9.3,0,15.1,5.6,19.1,12.5
		c9.1,15.6,8.6,30.4-6.3,46c-0.6,0.6-1.3,1.1-1.9,1.7c-4.7,4.6-4.7,5.6-1.2,10.9c4,5.9,8,11.9,11.7,18c3.6,5.8,2.2,8.1-4.7,8.6
		c-1.1,0.1-2.3-0.1-3.4,0.1c-7.5,0.9-13.3-1.4-17.2-8.4c-3.1-5.5-6.6-10.7-9.9-16c-3.1-4.9-6.5-6.3-11.5-5c-4.6,1.2-6.4,3.8-6.6,9.7
		c-0.1,3.4,0.3,6.9,0.1,10.3c-0.2,6.2-2.7,8.7-8.9,9.3c-1.4,0.1-2.9,0.1-4.3,0c-7.9-0.4-10.1-2.6-10.1-10.5
		C1449,1634.1,1449,1621.2,1449,1608.3C1449,1608.3,1449,1608.3,1449,1608.3z M1488.1,1579.7
		C1488.1,1579.7,1488.1,1579.7,1488.1,1579.7c-2.3,0-4.6-0.2-6.9,0c-6,0.5-8.6,2.7-8.9,8.4c-0.6,12.1-0.2,17.3,6,18.8
		c8.8,2.1,17.2,1,23.9-5.9c4-4.1,4.5-9.1,2.8-14.4c-1.7-5.2-5.9-6.6-10.8-6.8C1492.1,1579.6,1490.1,1579.7,1488.1,1579.7z"/>
	<path d="M1944.5,1434.3c0.5,21.1-7.7,37.3-23.6,47.6c-12.7,8.2-27.3,11.7-43.2,4.4c-10.7-4.9-19.6-10.6-24.8-21.1
		c-6.2-12.5-9.6-25.2-6-39.7c3.6-14.2,10.7-25.1,22.5-33.3c2.9-2,6.5-3.3,9.9-4.6c1.8-0.7,4.1-0.5,5.9-1.2
		c16.1-6.9,42.4,5,50.1,19.4C1940.1,1415.1,1945.4,1424.5,1944.5,1434.3z M1893.2,1406.3c-3.7,1.2-8.1,1.5-11,3.8
		c-11.1,8.7-17,19.9-13.7,34.5c4.7,20.6,23.6,27.1,38.8,19.4c10.9-5.6,13.8-15.8,13.8-26.8C1921,1421.9,1913.2,1406.2,1893.2,1406.3
		z"/>
	<path d="M633.1,1436c0-12.9,0-25.8,0-38.6c0-9,1.6-10.8,10.4-10.6c14.3,0.2,28.6,0.6,42.9,1.3c9.8,0.5,19.7,8.8,22.3,18.4
		c2.7,9.9,2.2,20-0.7,29.7c-1.3,4.3-5.4,7.9-8.7,11.3c-5.5,5.7-5.8,7.5-1.4,13.9c3.1,4.4,6.4,8.8,9.2,13.4c1.3,2.1,2.2,4.6,2.8,7.1
		c0.7,2.9-0.9,4.8-3.8,5.7c-9.6,2.8-18.1-0.9-23.2-9.9c-2.7-4.7-5.2-9.6-8.5-13.8c-2.1-2.7-5.3-5.3-8.6-6.4
		c-7.1-2.3-10.9,0.9-11,8.4c0,3.7,0.3,7.4,0.2,11.2c-0.3,8.2-3.1,11-10.9,11.1c-8.1,0.1-10.6-2.2-10.8-10.8
		C633,1463.4,633.2,1449.7,633.1,1436C633.1,1436,633.1,1436,633.1,1436z M669.7,1435.2c0-0.1,0-0.2,0-0.3c2.3,0,4.6,0.3,6.8-0.1
		c7.4-1.1,12.9-7.2,12.9-13.8c0-7-5.1-12-13.5-12.7c-4.8-0.4-9.7-0.3-14.5,0.3c-2.2,0.3-5.7,2.3-5.8,3.8c-0.4,5.9-0.2,11.9,0.8,17.6
		c0.3,1.8,3.5,3.5,5.7,4.3C664.4,1435.3,667.1,1435,669.7,1435.2z"/>
	<path d="M199.3,1608.1c0-12.6,0-25.2,0-37.8c0-8.4,2-10.9,10.5-11c13.2-0.3,26.3-0.1,39.5,0c18,0.1,27.6,13.7,28.5,29.1
		c0.7,12.5-2.6,23-12.5,31.3c-5.8,4.9-5.3,5.8-1,12c4.3,6.1,8.2,12.4,12,18.8c2.4,4.1,1.1,6.4-3.8,6.9c-3.7,0.3-7.4,0-11.2,0
		c-3.7,0-6.6-1.6-8.6-4.8c-4-6.3-8.1-12.5-11.9-18.8c-3.2-5.2-6.8-7-12-5.6c-4.5,1.2-6.2,3.8-6.3,9.8c-0.1,3.7,0.3,7.5,0.1,11.2
		c-0.3,4.9-2.6,7.2-7.4,8c-2.2,0.4-4.6,0.3-6.8,0.2c-6.9-0.6-8.9-2.7-9.1-9.9c-0.1-6.6,0-13.2,0-19.7
		C199.3,1621.2,199.3,1614.6,199.3,1608.1z M222.4,1594.1c0.1,1-0.4,3.8,0.6,6.1c1,2.4,2.8,5.2,5,6.3c6.9,3.4,19.7,0.1,24.5-5.9
		c3.5-4.4,4-9.3,2-14.6c-1.9-4.7-5.8-6-10.3-6.3c-2.9-0.2-5.7-0.2-8.6-0.2C224.3,1579.7,222.4,1581.6,222.4,1594.1z"/>
	<path d="M1710.3,1436.5c0-12.9,0-25.8,0-38.6c0-9.7,1.4-11.3,10.7-11.2c14,0.2,28,0.8,42,1.3c11.5,0.4,18.4,7.7,22.2,17.3
		c4,10.1,2.9,21.1-0.2,31.2c-1.3,4.3-5.6,7.7-8.9,11.2c-5.1,5.3-5.4,7.4-1.4,13.3c3.1,4.5,6.3,8.9,9.3,13.4c1,1.4,1.8,3,2.4,4.6
		c2,5.7,0.6,8.1-5.3,8.8c-10.7,1.4-16.4-1.6-21.7-11.3c-2.6-4.7-5.3-9.6-8.7-13.8c-2-2.5-5.2-4.6-8.3-5.4c-7.3-2-10.8,1.2-10.7,8.7
		c0.1,4,0.5,8,0.2,12c-0.5,7.4-3.5,10-11.1,10c-7.7,0-10.4-2.3-10.5-10.2C1710.2,1464,1710.4,1450.3,1710.3,1436.5
		C1710.4,1436.5,1710.3,1436.5,1710.3,1436.5z M1747.2,1408.3c0-0.1,0-0.2,0-0.2c-3.1,0.2-6.3,0.1-9.4,0.7c-1.8,0.3-3.9,1.4-5,2.8
		c-2.5,3-1.1,17.8,1.7,20.6c1,1,2.4,2.1,3.6,2.1c5.9,0.3,12.1,1.1,17.8,0c7.2-1.4,11.4-8.1,10.6-14.6c-0.7-6-5.9-10.5-13.3-11.2
		C1751.2,1408.1,1749.2,1408.3,1747.2,1408.3z"/>
	<path d="M2161,1605c-0.4,3.2-1.1,6.4-1.1,9.6c0,10.9,0.2,21.8,0.4,32.7c0.1,3.9,0.1,8.5-4.3,9.2c-4.8,0.8-10-0.1-15-0.7
		c-0.8-0.1-1.7-2.2-2.1-3.5c-0.4-1.6-0.4-3.4-0.4-5.1c0-25.8,0-51.6,0-77.4c0-9.1,2.1-11.1,11.3-10.7c7.3,0.3,12.8,3,17,9.6
		c8.1,12.8,17.1,25,25.7,37.5c1.5,2.2,2.9,5.2,5.8,3.5c1.7-1,2.7-4.2,2.9-6.5c0.3-3.4-0.4-6.8-0.5-10.3c-0.1-6.9-0.1-13.8-0.1-20.6
		c0-11.4,1.4-13.2,10.6-13.2c8.8,0,10.1,1.8,10.1,12.8c0,24.4,0,48.7,0,73.1c0,1.4,0.1,2.9,0,4.3c-0.4,6.4-2.2,7.8-8.4,8.4
		c-7.9,0.8-12.9-3-17.1-9.2c-7.5-11.1-15.2-22.2-23-33.1c-2.8-3.9-6.1-7.3-9.2-10.9C2162.8,1604.6,2161.9,1604.8,2161,1605z"/>
	<path d="M2337.5,1608.4c-0.9,17.2-6.1,32.4-20.9,42.9c-11.5,8.2-24.5,10.2-38.4,8.3c-21-3-38-24-39.4-46
		c-1.3-19.9,5.1-36.8,21.7-48.7c4.5-3.2,10-5.7,15.4-6.9c15.8-3.4,30.8-1.4,43.8,9.1c2.4,1.9,4.6,4.3,6.3,6.9
		C2332.7,1584.5,2338.8,1595.2,2337.5,1608.4z M2315.3,1608.6c-1.2-5-1.8-10.3-3.8-14.9c-5.1-11.6-18.7-18.2-30.5-14.2
		c-16.7,5.6-25.8,26.1-16.8,43.1c7.9,14.9,21,18.7,33.9,13.9C2308,1632.8,2314.5,1621.9,2315.3,1608.6z"/>
	<path d="M1311,1436.1c0-12.9,0-25.8,0-38.7c0-8.2,1.9-10.6,9.9-10.6c13.5-0.1,26.9,0.2,40.4,0.6c13,0.4,21.1,7.1,25.3,19.4
		c3.4,9.7,3.9,19.2-0.6,28.4c-2.2,4.5-5.6,8.5-9.1,12.1c-5.4,5.6-5.8,6.7-1.5,13c3.7,5.5,7.5,10.8,10.8,16.5
		c4.4,7.6,2.6,10.2-5.9,11c-8.8,0.8-14.9-2.6-19.2-10c-3.1-5.2-6.3-10.2-9.4-15.3c-3.3-5.4-10.5-7.6-16.4-5.1
		c-3.1,1.3-3.9,3.9-3.9,7c0,4.3,0.3,8.6,0.2,12.9c-0.3,7.5-3.3,10.7-9.5,10.5c-7-0.1-10.7-3.4-10.8-10.5
		C1310.9,1463.6,1311.1,1449.9,1311,1436.1C1311.1,1436.1,1311.1,1436.1,1311,1436.1z M1346.9,1408c-3.5,0.2-6.7,0.1-9.8,0.8
		c-1.8,0.4-4.3,1.7-4.7,3.1c-1.8,6.4-1.9,13,1,19.2c0.7,1.5,3,3.1,4.7,3.2c6.2,0.3,12.6,0.8,18.7-0.3c6.3-1.1,10.2-7.4,9.8-13.4
		c-0.4-5.9-4.2-10.4-10.7-11.8C1352.9,1408.1,1349.7,1408.2,1346.9,1408z"/>
	<path d="M646.9,1608.8c0-13.2-0.1-26.3,0-39.5c0.1-8.4,1.8-10.1,10.1-10.1c12.6-0.1,25.2-0.1,37.8,0c9.8,0.1,19.1,2.1,24.6,11.2
		c4.8,8,7.8,16.8,6.1,26.2c-1.5,8.5-4.6,16.4-11.5,22.4c-6.9,6.1-6.5,6.6-1.1,14c3.9,5.3,7.5,10.8,10.9,16.4
		c2.6,4.4,1.2,7.5-3.9,7.8c-13.5,0.8-16.5,2-24-11.2c-2.6-4.5-5.2-8.9-7.9-13.2c-3.1-4.8-11.5-6.8-15.9-3.4c-1.8,1.4-3,4.1-3.3,6.4
		c-0.5,3.6,0.1,7.4,0,11.1c0,8.5-2.1,10.5-10.8,10.6c-0.9,0-1.7,0-2.6,0c-6.3-0.4-8.1-2-8.3-8.4c-0.3-7.1-0.1-14.3-0.1-21.5
		C647,1621.4,647,1615.1,646.9,1608.8C647,1608.8,646.9,1608.8,646.9,1608.8z M668.6,1593.6c0.1,1.5,0.1,4.1,0.5,6.6
		c0.5,3.8,2.8,6.2,6.6,6.9c8.5,1.5,16.6,0.2,23.6-5c4.8-3.6,5-8.7,4-14c-1-4.9-4.3-7.4-9-7.8c-6-0.4-12-0.8-18-0.5
		c-5.5,0.3-7.3,2.7-7.7,8.3C668.5,1589.6,668.6,1591,668.6,1593.6z"/>
	<path d="M507.3,1440c0.4-4.2,1-7.2,1-10.2c0-10.9-0.2-21.8-0.4-32.7c-0.1-3.9-0.1-8.3,4.1-9.4c3.9-1,8.5-0.6,12.5,0.5
		c3.5,0.9,3.4,4.9,3.4,8.1c0.1,11.2,0.2,22.4,0.3,33.5c0.1,15.2,0.2,30.4,0.3,45.6c0,4.4-0.1,8.9-4.8,11.1c-5,2.3-10.3,2.7-14.4-1.5
		c-4.5-4.7-8.6-9.9-12.3-15.2c-7.4-10.5-14.4-21.3-21.9-31.8c-1.3-1.8-4-2.4-6.1-3.6c-1.1,2.1-3.2,4.2-3.3,6.4
		c-0.2,10,0.2,20,0.4,30.1c0,2.3,0.1,4.6,0,6.9c-0.5,7.2-3.8,10.3-10.9,10.4c-5.9,0.1-9-2.9-9.3-9.9c-0.3-6,0.2-12,0.2-18
		c-0.1-20.4-0.2-40.7-0.3-61.1c0-4.6-0.6-9.5,4.9-11.7c4.9-2,13.8-0.5,16.8,3.4c6.6,8.7,12.7,17.6,19,26.5c3.3,4.7,6.3,9.5,9.6,14.2
		C498.4,1434.8,501.1,1438.2,507.3,1440z"/>
	<path d="M1820.8,1607.7c0-12.6,0-25.2,0-37.8c0-9.1,1.5-10.9,10.3-10.8c12.9,0.1,25.7,0.8,38.6,0.8c9.1,0.1,16.1,4.8,21.8,10.6
		c12.7,12.8,17.4,28.8,14.4,46.4c-1.3,7.4-3.3,14.8-8,21.5c-8.6,12.2-19.8,18.7-34.5,19c-11.2,0.2-22.3,0.2-33.5,0
		c-7.2-0.1-9-1.9-9-9.4C1820.7,1634.7,1820.8,1621.2,1820.8,1607.7z M1842.4,1607.9C1842.4,1607.9,1842.4,1607.9,1842.4,1607.9
		c0.1,4.9,0.1,9.7,0.1,14.6c-0.1,13.6,2.3,15.9,16,14.8c1.1-0.1,2.3-0.3,3.4-0.4c10.6-1.1,17.6-7.7,20.7-16.9
		c3.4-10.1,3.7-20.7-4-30c-7.4-8.8-16.8-11.4-27.6-10.3c-6.4,0.6-8.4,2.8-8.5,9.4C1842.3,1595.4,1842.4,1601.6,1842.4,1607.9z"/>
	<path d="M2000.3,1435.9c0-12.9,0-25.8,0-38.7c0-8.9,1.6-10.7,10.5-10.6c12.9,0.2,25.7,1.1,38.6,1.3c7.6,0.1,13,4.8,18.2,8.9
		c7.5,6,14.3,13.3,15.3,23.9c0.2,2.2,1,4.5,1.8,6.6c2,5.9,1.8,11.6,0.1,17.7c-2.1,7.7-3.3,15.4-8.2,22.3
		c-9.6,13.6-22.9,19.4-38.7,20.3c-8.9,0.6-17.8,0.1-26.7,0.1c-8.5,0-10.7-2-10.8-10.6c-0.2-13.8-0.1-27.5-0.1-41.3
		C2000.4,1435.9,2000.4,1435.9,2000.3,1435.9z M2021,1437.3c-0.1,0-0.2,0-0.3,0c0,6.3,0.1,12.6,0,18.9c-0.1,8.8,2.7,11.7,11.2,10.8
		c4.8-0.5,9.6-1.6,14.3-3c8.1-2.4,13.3-8.7,15.8-15.9c6.8-19.6-7.7-42.7-27.7-39.8c-1.7,0.2-3.4,0-5.2,0.1c-6.5,0.4-8,1.9-8.1,8.4
		C2020.9,1423.5,2021,1430.4,2021,1437.3z"/>
	<path d="M1223.4,1436.2c0-12.6,0-25.2,0-37.8c0-9.3,2.3-11.6,11.8-11.7c16-0.1,32.1,0.2,48.1-0.1c12.3-0.2,13,6.6,11.1,16.7
		c-0.8,4.1-4.8,4.6-8.3,4.6c-8,0.2-16,0.1-24.1,0.1c-2.6,0-5.2-0.1-7.7,0.1c-5.6,0.5-8,3-8.1,8c-0.1,5.3,2.6,9.1,7.9,9.3
		c7.4,0.3,14.9-0.1,22.3-0.2c4.2,0,9.8-1.3,11.1,3.9c1.3,5,0.9,10.7,0,15.8c-0.6,3.5-4.7,3.5-8,3.5c-8-0.1-16.1,0.1-24.1-0.2
		c-9.3-0.4-10.9,7.7-8.5,13.6c1.6,4,5,5.2,9,5.2c7.4,0,14.9-0.1,22.3-0.1c2.6,0,5.2-0.1,7.7,0.2c5.8,0.7,8.7,3.9,8.8,9.6
		c0.2,5.7-2.6,9.5-8,10.5c-2,0.4-4,0.4-6,0.4c-14.6,0-29.2,0.1-43.8,0c-10.8,0-13.7-3-13.8-13.8
		C1223.4,1461.4,1223.4,1448.8,1223.4,1436.2z"/>
	<path d="M357,1435.9c0-12.9,0-25.8,0-38.7c0-9.1,1.5-10.5,10.5-10.6c16.3-0.1,32.7-0.1,49,0c9.5,0.1,14.9,10.2,9.5,18.1
		c-1.3,1.9-4.8,3.1-7.3,3.2c-8.6,0.4-17.2,0.2-25.8,0.2c-2,0-4,0-6,0.1c-6,0.5-8.2,2.2-8.6,6.4c-0.5,5.3,2.6,9.7,7.9,10.5
		c3.9,0.6,8,0.5,12,0.5c4.6,0,9.2-0.5,13.7-0.3c7.5,0.3,10.8,4.1,10.8,11.5c-0.1,7.7-3.2,11.3-10.7,11.5c-8.3,0.3-16.6-0.2-24.9,0.2
		c-7.8,0.4-11.1,6.5-7.7,13.2c2.1,4.2,6,5.1,10.1,5.2c8.3,0.1,16.6,0,24.9-0.1c2,0,4-0.3,6-0.1c5.6,0.6,8.7,4.1,9.1,9.6
		c0.3,5.9-2.7,10.1-8.5,11c-2.2,0.4-4.6,0.3-6.9,0.3c-15.2,0-30.4,0-45.5,0c-9.5,0-11.5-1.8-11.6-11.6
		C357,1462.8,357.1,1449.3,357,1435.9C357,1435.9,357,1435.9,357,1435.9z"/>
	<path d="M2102.9,1436.3c0-12.9,0-25.8,0-38.7c0-8.8,1.9-10.8,10.4-10.9c16.6-0.1,33.3,0,49.9,0c3.8,0,8.1-0.1,9.1,4.5
		c1.1,4.9,2.3,10.4-1.2,14.8c-1.3,1.6-4.6,2-7,2.1c-8.6,0.2-17.2,0.1-25.8,0.1c-2,0-4-0.1-6,0.1c-5.9,0.4-8,2.4-8.2,7.6
		c-0.2,6,2.6,9.8,8.2,9.9c7.4,0.2,14.9-0.3,22.4-0.4c4.4-0.1,9-0.4,11.1,4.5c2.1,4.9,2,10.2-0.3,15c-1.5,3.3-4.8,3.8-8.1,3.7
		c-7.5-0.1-14.9-0.2-22.4-0.2c-8.2,0-10.9,2.2-11,8.6c-0.1,7.2,3.2,10.2,11.6,10.1c8.9,0,17.8-0.1,26.7-0.3
		c7.9-0.2,10.6,2.1,10.8,9.6c0.3,8.1-2.5,11.3-10.2,11.3c-16.1,0.1-32.1,0-48.2,0c-8.7,0-11.5-2.5-11.6-11.1
		C2102.8,1463.2,2103,1449.8,2102.9,1436.3C2102.9,1436.3,2102.9,1436.3,2102.9,1436.3z"/>
	<path d="M2049.7,1608.6c0-12.9,0-25.8,0-38.7c0-8,2-10.5,10-10.7c17.2-0.3,34.4-0.3,51.6-0.1c7.2,0.1,10,3,10.1,9
		c0.1,7.5-3.1,11.2-10.8,11.4c-8.6,0.2-17.2-0.1-25.8,0c-8.4,0.1-12.3,2.9-12.3,8.7c0,6.4,4.1,9.9,12.3,10
		c7.4,0.1,14.9-0.2,22.3,0.1c6.9,0.4,10.2,4.7,9.3,11.6c-0.6,5.3-3.4,8.3-9,8.6c-6.3,0.4-12.6,0.1-18.9,0.2c-2.6,0-5.2-0.1-7.7,0.2
		c-5.1,0.7-8.3,4.4-8.4,9.3c-0.1,4.9,2.8,8.5,8.5,8.8c8,0.4,16,0.2,24.1,0.2c3.1,0,6.3-0.3,9.4,0c6.4,0.7,9,4.1,8.9,11.3
		c-0.1,6.1-2.3,8.7-9.1,8.8c-18.3,0.3-36.7,0.3-55,0c-7.8-0.1-9.6-2.7-9.6-10.9C2049.8,1633.8,2049.8,1621.2,2049.7,1608.6
		C2049.8,1608.6,2049.7,1608.6,2049.7,1608.6z"/>
	<path d="M379.1,1608.9c0-12.9,0-25.8,0-38.7c0-8.6,1.9-10.8,10.5-10.9c16.6-0.2,33.3-0.2,49.9,0c7.8,0.1,10.9,3,10.9,9.2
		c0,7.4-3.3,11.1-11,11.2c-9.7,0.2-19.5-0.2-29.2,0.2c-5.5,0.2-8.2,3.3-8.4,8c-0.2,4.9,2.7,9.1,7.5,10.1c2.2,0.5,4.6,0.4,6.8,0.4
		c6.6,0,13.2-0.3,19.8,0.1c7.1,0.4,10.3,4.5,9.6,11.4c-0.5,5.6-3.3,8.5-9.6,8.9c-6.6,0.4-13.2,0.1-19.8,0.1c-2.6,0-5.2,0-7.7,0.5
		c-4.5,1-6.9,4.9-6.7,9.7c0.2,4.5,2.5,7.6,7.4,7.9c7.7,0.6,15.5,0.4,23.2,0.4c3.2,0,6.3-0.3,9.5-0.1c8.5,0.4,13.1,7.9,9.5,15.7
		c-0.8,1.8-3.1,3.2-5.1,4c-1.8,0.7-3.9,0.5-5.9,0.6c-16.3,0-32.7,0.1-49,0c-11-0.1-12.4-1.8-12.3-12.5
		C379.2,1632.9,379,1620.9,379.1,1608.9C379.1,1608.9,379.1,1608.9,379.1,1608.9z"/>
	<path d="M1082,1608.2c0-12.6,0-25.2,0-37.8c0-9.7,1.4-11.2,10.7-11.3c16-0.1,32.1-0.1,48.1,0c9.6,0,12.7,3.6,11.1,12.5
		c-1,5.9-3.2,8-9.2,8c-8.3,0.1-16.6-0.1-24.9-0.1c-2,0-4-0.1-6,0.1c-5.8,0.6-8.3,2.9-8.6,7.7c-0.3,5.5,2.7,9.5,8,10.5
		c2.8,0.5,5.7,0.4,8.6,0.4c5.7,0,11.5-0.2,17.2,0c6.9,0.3,10.4,3.7,10.5,9.8c0.1,6.4-3.7,10.5-10.7,10.7c-7.7,0.3-15.5-0.1-23.2,0.1
		c-6.4,0.2-9.5,3-10.3,8.2c-0.9,5.9,2,9.7,8.7,10c9.7,0.4,19.5,0.1,29.2,0c7.3-0.1,10,2.2,10.7,9.2c0.9,7.8-1.9,11.2-10,11.2
		c-16.9,0.1-33.8,0.1-50.7,0c-7.8-0.1-9.4-1.8-9.4-9.9C1081.9,1634.5,1082,1621.3,1082,1608.2z"/>
	<path d="M937,1420.8c0-8.6-0.2-17.2,0.1-25.8c0.2-6.9,2.5-8.5,11-8.4c8.2,0.1,10.8,2,10.7,8.9c-0.4,20.6-1.2,41.2-1.8,61.8
		c-0.4,11.8-7.5,19.8-16.4,25.8c-15.5,10.4-31.6,9-46.9-0.5c-4.6-2.8-8.4-8.1-10.7-13c-4.9-10.4-7.4-21.6-7-33.3
		c0.4-12.9,0.1-25.8,0-38.7c0-4.2,0.2-8.1,4.9-10c5-1.9,14.2-1.2,16.2,2.1c1.5,2.5,2,5.9,2.1,8.9c0.2,14-0.1,28.1,0,42.1
		c0.1,4.5,1.1,9.1,1.7,13.6c1.4,10.7,17,17.2,27.6,9c5.9-4.5,9.6-10.4,9.3-18.4c-0.4-8-0.1-16-0.1-24.1
		C937.4,1420.8,937.2,1420.8,937,1420.8z"/>
	<path d="M1685.1,1488c-7.3,0.7-11.9-4.4-13.4-10.5c-3-11.9-10.6-14.3-21.2-13.3c-4,0.4-8,0-12,0.1c-7.5,0.3-9.3,1.8-11.8,8.9
		c-0.8,2.4-1.5,5-2.8,7.2c-3.6,6.1-9.1,8.4-16,7.5c-5.7-0.7-8.3-4.3-6.1-9.5c5.8-13.9,11.8-27.8,17.6-41.7
		c3.1-7.7,5.8-15.5,8.7-23.3c2.6-6.9,4.9-14,7.9-20.8c1-2.3,3.8-4.6,6.2-5.1c3.8-0.9,7.9-0.6,11.9-0.4c3.8,0.2,6.1,2.5,7.4,6.2
		c4.8,13.4,9.7,26.8,14.9,40c5.5,14,11.5,27.9,17.4,41.8C1697.2,1483.6,1694.4,1488.1,1685.1,1488z M1656.3,1437.5
		c0.3-6.3-3.5-12.7-7.5-12.9c-4.1-0.2-7.9,4.9-8.4,11.3c-0.4,5.2,2,7.8,7.6,8C1653.3,1444,1656.1,1441.9,1656.3,1437.5z"/>
	<path d="M933.7,1596.3c0,8.3,0.4,16.6-0.1,24.9c-0.6,9.5-2.8,18.7-9.4,26.1c-11.1,12.4-25.5,14.8-40.8,12.1
		c-16.3-2.9-26.4-14.1-28.9-30.6c-0.7-4.5-1.1-9.1-1.1-13.7c-0.2-15.5-0.3-30.9-0.2-46.4c0-7.5,2.6-9.6,10.9-9.7
		c8.6-0.1,10.9,1.6,10.9,9.4c0,16,0.6,32.2-0.9,48.1c-1.3,13,12.6,26,27.1,19.8c5.2-2.2,8.8-5.5,9.6-11.1c1-6.5,2.1-13,2.2-19.6
		c0.3-11.7,0.4-23.5-0.2-35.2c-0.4-9.5,5.4-11.5,11.5-11.2c6.4,0.3,9.4,3.2,9.5,9.6c0.1,9.2,0,18.3,0,27.5
		C933.7,1596.3,933.7,1596.3,933.7,1596.3z"/>
	<path d="M1430.8,1595.9c0,8.3,0.3,16.6-0.1,24.9c-0.5,9.9-2.8,19.4-9.8,26.9c-11.5,12.4-26.2,14.7-41.8,11.4
		c-15.5-3.2-25.1-14.2-27.5-29.9c-0.7-4.5-1.1-9.1-1.2-13.7c-0.2-15.5-0.1-30.9-0.2-46.4c0-3.9,0.3-8,4.7-9.2
		c4.9-1.4,10.5-2.4,14.7,1.2c1.8,1.5,2.3,5.1,2.3,7.8c0,15.7-0.2,31.5-0.6,47.2c-0.3,10.5,4.8,18.5,14,21
		c10.4,2.9,19.9-2.2,22.5-12.7c1.3-5.5,2.1-11.3,2.2-17c0.2-12.6-0.1-25.2-0.2-37.8c-0.1-7.4,3-10.6,10.1-10.7
		c7.2-0.1,10.7,3,10.8,10.2C1431,1578.2,1430.9,1587,1430.8,1595.9C1430.9,1595.9,1430.9,1595.9,1430.8,1595.9z"/>
	<path d="M173.8,1657.6c-5.2,0.8-8.6-1.9-11.4-7.2c-8.5-15.8-3.7-14.3-24-14.4c-3.7,0-7.5-0.1-11.2,0.1c-6.1,0.4-9.9,3.4-11.7,9.5
		c-3.2,10.7-9.7,14.2-19.9,11.4c-4.1-1.1-5.2-3.1-3.6-7c5-12.4,10.3-24.8,15.1-37.3c5.8-15.2,11.4-30.5,16.9-45.8
		c3.2-8.8,12.4-13.4,20.8-9.5c2.1,1,4.1,3.3,5.1,5.4c4.3,9.6,8.4,19.4,12.3,29.2c3.9,9.8,7.6,19.7,11.4,29.5
		c3.1,8,6.5,15.9,9.5,23.9C186.6,1654.7,184.5,1657.5,173.8,1657.6z M137.4,1615.3c8.6-0.1,10.3-2.4,7.7-10.9
		c-0.7-2.2-1-4.5-1.8-6.6c-1.9-4.8-5.2-5.5-8.1-1.4c-2.1,3-3.8,6.4-4.9,9.9C128.2,1612.7,130.6,1615.4,137.4,1615.3z"/>
	<path d="M587,1636.2c-4.3,0-8.6-0.3-12.9,0.1c-6.7,0.5-8.9,2.5-10.8,9c-3.1,10.8-8.7,14.2-19.6,12c-4.7-1-6.2-3.6-4.4-8.1
		c8-19.5,16.1-39,23.9-58.5c3.2-7.9,5.9-16,8.9-24.1c3.2-8.7,11.6-12.7,20.1-9.2c1.9,0.8,3.8,2.6,4.9,4.5c2.5,4.5,4.7,9.2,6.5,14
		c5.6,14.7,10.7,29.5,16.3,44.1c3.2,8.3,6.9,16.3,10.3,24.5c0.8,1.8,1.7,3.7,2,5.6c0.8,4.2-0.9,6.9-5.1,7.2
		c-10.2,0.8-14.8,1.1-19.1-11c-0.4-1.1-0.6-2.2-1-3.3c-2.1-6.4-3.3-7.3-9.7-7.3c-3.4,0-6.9,0-10.3,0C587,1636,587,1636.1,587,1636.2
		z M585.2,1615.3c6.9,0,9.3-2.9,8-9.6c-0.2-1.1-0.5-2.2-0.8-3.3c-1-2.9-1.5-7.2-5.4-6.6c-2.6,0.4-5.1,3.2-7.2,5.4
		c-1.2,1.4-1.8,3.6-2.1,5.5C576.7,1612.4,579.3,1615.3,585.2,1615.3z"/>
	<path d="M1442.9,1490.4c-16.8-1.1-28.4-6-39-13.9c-3.1-2.3-3.6-5-1.4-8.1c1-1.4,2.2-2.7,3.2-4.1c5.8-7.9,6-7.6,14.2-2.8
		c5.1,3,10.8,5.3,16.6,6.8c2.6,0.7,6.2-0.4,8.9-1.7c3.2-1.4,5.6-4.2,5.2-8.2c-0.4-3.8-2.7-6.3-6.2-7.6c-7.5-2.8-14.9-5.6-22.5-8.1
		c-14.1-4.5-22.2-20.3-17.2-34.4c2-5.6,3.6-11.3,8.7-15.4c8.3-6.8,17.9-8.1,28-7.5c3.7,0.2,7.3,1.7,10.9,2c5.5,0.5,9.6,3.4,13.6,6.7
		c3,2.5,3.7,5.8,2,9.3c-1.1,2.3-2.5,4.5-4.1,6.5c-3.9,4.8-5.6,5.2-10.8,1.7c-5.8-3.9-12.3-4.6-18.9-4.7c-5.1-0.1-7.5,2-8.2,5.9
		c-0.7,4.2,1.3,7.6,5.8,9.2c7.5,2.7,15.3,4.8,22.6,7.9c9.8,4.3,17.8,11,19.6,22.1c2.1,13.1-3.1,23.8-14,31
		C1454,1487.3,1447.3,1491.1,1442.9,1490.4z"/>
	<path d="M1624.1,1657.6c-9.4,0.1-12.6-2.2-15.4-11.5c-3.1-10.1-3.1-10.1-13.7-10c-6.3,0.1-12.6,0-18.9,0c-8.6,0.1-9.6,1-11.8,9.2
		c-2.8,10.5-8.1,13.8-19.1,12.2c-5.1-0.8-6.8-3.8-5-8.5c9-22.8,18-45.7,27-68.5c2.2-5.6,4.5-11.1,6.8-16.6c2.1-5.3,6.6-6.9,11.7-7.1
		c5.4-0.2,10.6,0.7,12.9,6.5c5.1,12.7,9.9,25.6,15,38.3c3.4,8.5,7,16.9,10.5,25.3c3,7.4,6.2,14.7,8.9,22.2
		C1635,1654.8,1632,1657.5,1624.1,1657.6z M1586.1,1615.3c6.8,0.1,9.4-3,7.8-9.7c-1-4.1-1.4-8.9-6.8-9.8c-3.8-0.6-7.5,4.1-8.6,10.2
		C1577.3,1612.4,1579.7,1615.2,1586.1,1615.3z"/>
	<path d="M2002.6,1556.6c4.2,1.1,11.7,2.7,19,5.2c4.3,1.5,9.4,4.7,8.6,9.5c-0.8,4.7-4.2,9.2-7.4,13.1c-2.1,2.5-5,0.3-7.8-1
		c-5.1-2.3-10.5-4.6-15.9-5.6c-6.4-1.1-11.8,2.5-12.4,6.7c-0.6,4.2,2.5,7.5,9.1,9.8c7.6,2.7,15.1,5.3,22.6,8.1
		c10.3,3.9,16.4,12.6,16.6,23.7c0.1,7.1,0.1,14-4.3,20.5c-6,8.7-14.7,12-24,13.2c-13.8,1.8-26.7-1.5-38.1-9.8
		c-5.8-4.2-6.2-7.7-1.5-14.6c4.2-6.2,7.5-6.7,13.6-3.4c5.2,2.8,10.8,5.1,16.4,7.2c4.6,1.7,9.1,0.1,13.2-2.2c4.2-2.4,5-6.6,1.6-10
		c-2.1-2.1-5-3.8-7.9-4.9c-6.4-2.5-13.1-4.2-19.5-6.7c-9.5-3.7-16.9-9.5-18.2-20.7c-1.3-11.1-1-21.9,8.3-30
		C1981.4,1558.6,1990,1556.6,2002.6,1556.6z"/>
	<path d="M256.9,1434c0.4-16.1,7.4-31.3,23-42.1c7.6-5.3,23.4-8.3,32.7-6.3c8.1,1.7,16.1,3.2,22.9,8.8c5.4,4.5,6.2,6.9,2.1,12.9
		c-5.8,8.5-9.6,9.4-18.5,4c-20.1-12.1-39.1,4.3-39.5,20.9c-0.3,9.1,0.2,17.8,6.6,25.9c9.5,11.9,27.1,10.5,35.6,3.7
		c2.9-2.4,5.8-6.1,9.5-3.1c3.8,3.1,6.8,7.5,9.4,11.7c0.6,1-1.2,4.3-2.7,5.8c-10.9,11-34.1,19-50.5,10.2c-7.9-4.3-15.6-8.3-20.9-15.7
		C259.6,1460.4,256.9,1448.9,256.9,1434z"/>
	<path d="M1212.5,1556.6c13.2,0.2,23.6,1.5,32,9.3c4.8,4.4,5.1,7.2,1.5,12.7c-0.9,1.4-2.1,2.7-3.2,4c-4.8,5.3-6.1,5.4-12.3,1.4
		c-6.1-4-12.4-6.4-20.2-5.3c-6.8,1-11.6,4.2-15.6,9.4c-7.7,10-7.7,30.7-0.1,40.6c9,11.7,23.5,12.1,34.6,5.2c1.5-0.9,2.7-2.1,4.1-3
		c2.7-1.8,5.5-1.7,7.9,0.4c2.2,1.9,4.2,3.9,6,6.1c2.4,3.1,2.5,6.7-0.1,9.4c-3.1,3.3-6.4,7-10.4,8.7c-15.1,6.6-30.9,7.2-45.6-0.5
		c-8.5-4.4-15.2-11.6-19.6-20.9c-5.3-11.5-8.4-23.1-5.6-35.7c3.3-14.7,10.2-27.6,23.4-35.5C1197,1558.3,1205.8,1556,1212.5,1556.6z"
		/>
	<path d="M1128.6,1386.7c10.5,0,13.8,2.3,16,10.1c2.8,10.1,7.3,19.8,10.7,29.7c1.2,3.5,1.6,7.3,2.5,10.9c0.8,3.4,1.8,7,6,7.5
		c4.3,0.5,5.9-3,7-6.3c3-8.9,5.8-17.9,8.7-26.9c2.2-6.5,4.5-13,6.7-19.4c1.3-3.7,4-5.4,7.9-5.5c1.7,0,3.4-0.1,5.2-0.1
		c9.9,0.1,10.8,1.5,7.4,11.1c-5.4,15.3-10.4,30.8-15.9,46.1c-2.9,8-6.6,15.8-9.7,23.7c-1.7,4.3-2.7,8.7-4.3,13
		c-2.5,6.8-7.3,10-13.7,9.3c-5.3-0.5-9-3-10.9-8.3c-5-14.3-10-28.6-15.2-42.8c-3.3-8.8-7.1-17.4-10.6-26.2
		c-2.4-6.1-4.7-12.2-6.9-18.4c-1.4-4,0.3-6.6,4.6-7.4C1126.1,1386.6,1128.1,1386.7,1128.6,1386.7z"/>
	<path d="M1713.7,1635c3.4-13.7-5.4-25-12.3-36.8c-5.6-9.6-11.5-19.1-17.1-28.8c-3.6-6.1-1.6-9.8,5.5-10.3
		c12-0.9,14.8,0.7,20.2,11.4c2.6,5.1,5,10.3,8.2,15c1.6,2.3,4.6,4.5,7.3,5c3.7,0.7,4.9-3,6.3-5.9c2.8-5.6,5.5-11.3,8.7-16.8
		c4.9-8.3,12.9-11.2,22.2-8.4c3.9,1.2,5.2,3.9,3,8.1c-2.7,5.3-5.9,10.5-9,15.6c-5.8,9.5-11.9,18.9-17.3,28.6
		c-1.8,3.3-2.6,7.6-2.7,11.5c-0.3,8,0.2,16,0.2,24.1c0.1,7.8-2.6,10.1-11.3,10.2c-8.5,0.1-11.6-2.4-11.8-9.9
		C1713.6,1643.9,1713.7,1640.2,1713.7,1635z"/>
	<path d="M1578,1447.2c0,9.7,0.2,19.5,0,29.2c-0.2,8.3-4.3,11.9-12.5,11.5c-6.4-0.4-9.9-3.6-10.3-10.2c-0.3-4.6,0-9.1,0-13.7
		c0-14.6,0.1-29.2,0.1-43.8c0-9.3-2.2-11.5-11.6-11.9c-2.9-0.1-5.7,0.1-8.6-0.2c-5.8-0.7-7.5-2.9-7.7-9.2
		c-0.3-7.5,1.6-10.6,7.2-11.7c1.9-0.4,4-0.3,6-0.3c17.2,0,34.3,0,51.5,0c1.1,0,2.3,0,3.4,0.1c9.2,0.6,14.2,10.3,9,17.9
		c-1.1,1.6-3.7,2.8-5.7,3.1c-3.9,0.6-8,0.3-12,0.5c-6.7,0.4-8.7,2.2-8.9,8.9c-0.3,10-0.1,20-0.1,30
		C1577.9,1447.2,1577.9,1447.2,1578,1447.2z"/>
	<path d="M1040.7,1618.4c0,9.7,0.1,19.5,0,29.2c-0.1,8.4-1.8,9.9-10.3,10c-9,0.1-11.6-1.9-11.6-9.8c0-18.6,0.1-37.2,0.3-55.9
		c0.1-10.2-1.5-12.1-11.7-12.3c-1.7,0-3.4,0.1-5.2,0.1c-9-0.1-13.9-7.3-10.5-15.7c1.7-4.2,5.2-4.9,9.1-4.9c14,0,28.1,0,42.1,0
		c5.7,0,11.5-0.2,17.2,0.1c6.3,0.3,8.1,2.7,8.1,9.6c0,7.5-2.1,10.5-8,10.8c-3.7,0.2-7.5-0.2-11.2-0.1c-6.8,0.2-8.6,2-8.7,8.8
		c-0.1,10,0,20.1,0,30.1C1040.5,1618.4,1040.6,1618.4,1040.7,1618.4z"/>
	<path d="M570.4,1446.8c0-9.7,0-19.5,0-29.2c0-7-1.4-8.6-8.4-9.2c-3.4-0.3-6.9-0.1-10.3-0.3c-7.4-0.3-9.2-2.1-9.5-9.1
		c-0.4-9.7,2-12.3,11.7-12.3c18.3-0.1,36.6,0,55,0c3.7,0,8.5-0.6,9.4,3.9c1,4.8,0.4,10.1-0.4,15c-0.2,1.1-3.7,2.2-5.8,2.5
		c-3.7,0.4-7.4,0.1-11.1,0.2c-8,0.2-9.3,1.6-9.3,9.8c0,17.7,0.1,35.5,0.1,53.2c0,2,0.1,4,0,6c-0.4,9.6-7.9,14.1-16.7,9.8
		c-4.3-2.1-4.8-6.1-4.9-10.2c0-10,0-20,0-30C570.3,1446.8,570.4,1446.8,570.4,1446.8z"/>
	<path d="M337.3,1619.9c0,9.2,0,18.3,0,27.5c0,3.9,0,8-4.4,9.3c-4.9,1.5-10.6,2.4-14.8-1c-1.9-1.6-2.5-5.6-2.5-8.6
		c-0.2-18.6,0-37.3,0.1-55.9c0-0.6,0.1-1.1,0.1-1.7c0-8.2-1.7-9.9-10.3-10c-2.9,0-5.7,0.2-8.6,0.2c-6.8-0.2-8.9-2.8-9-10.7
		c-0.1-7.3,1.8-9.7,8.7-9.8c19.5-0.1,39-0.1,58.5,0c7.1,0.1,9.7,2.7,9.8,9.1c0.1,8-2.9,11.2-10.4,11.4c-2.6,0.1-5.2-0.2-7.7,0
		c-7.5,0.5-9.6,2.6-9.7,10.1c-0.1,10,0,20.1,0,30.1C337.1,1619.9,337.2,1619.9,337.3,1619.9z"/>
	<path d="M1310,1619.1c0,9.2,0,18.3,0,27.5c0,9.2-1.6,10.9-10.1,11c-9.4,0.1-11.6-1.8-11.6-10.6c0-18.1,0.1-36.1,0.2-54.2
		c0.1-11.8-1.3-13.2-13.4-13.2c-1.1,0-2.3,0.1-3.4,0c-8.2-0.1-10.7-2.6-10.9-10.8c-0.2-6.7,2.2-9.6,9.1-9.6c19.5-0.2,39-0.2,58.5,0
		c6.4,0,8.2,1.9,8.5,8.1c0.1,2-0.1,4-0.3,6c-0.5,4.4-3.1,6.6-7.6,6.5c-2.9-0.1-5.7-0.2-8.6-0.2c-9,0-10.7,1.7-10.7,10.4
		c0,9.7,0,19.5,0,29.2C1309.7,1619.1,1309.8,1619.1,1310,1619.1z"/>
	<path d="M1082,1435.9c0-12.9,0-25.8,0-38.7c0-3.7-0.5-8.2,3.8-9.6c4.9-1.7,10.5-2.4,14.8,1c2,1.6,2.9,5.5,3,8.4
		c0.3,9.7,0,19.5,0,29.2c0,15.8,0,31.5,0.1,47.3c0,2,0.1,4-0.2,6c-1,6.5-4.1,8.7-11.6,8.6c-6.9-0.1-9.7-2.2-9.8-9.1
		c-0.3-14.3-0.1-28.7-0.1-43C1082.1,1435.9,1082,1435.9,1082,1435.9z"/>
	<path d="M1924.3,1607.9c0-12.9-0.1-25.8,0-38.7c0.1-8.6,2.1-10.3,11-10.2c8.6,0.1,10.8,2.2,10.8,10.6c0,25.8,0,51.6,0,77.4
		c0,3.8,0.2,8.5-4.1,9.4c-4.8,0.9-10.2,0.6-14.9-0.7c-1.6-0.4-2.7-5.4-2.7-8.2C1924.1,1634.3,1924.3,1621.1,1924.3,1607.9z"/>
	<path d="M1806.1,1436.6c0-12.9,0-25.8,0-38.7c0-4.1-0.5-9.1,4.2-10.2c4.5-1.1,9.7-0.8,14.2,0.4c1.7,0.5,3,5.2,3.1,8
		c0.4,8.6,0.1,17.2,0.1,25.8c0,16.9,0,33.8,0,50.7c0,1.7,0.1,3.4,0,5.2c-0.4,7.7-2.6,10-9.7,10.2c-8.2,0.2-11.6-2.4-11.7-10.1
		C1806,1464.1,1806.2,1450.3,1806.1,1436.6C1806.2,1436.6,1806.2,1436.6,1806.1,1436.6z"/>
	<path d="M1511,1436.6c0,12.3,0,24.6,0,37c0,2,0.1,4-0.2,6c-0.7,5.4-3.3,8-8.2,8.3c-6.1,0.4-10.7-2.4-11.8-7.6
		c-0.4-1.7-0.4-3.4-0.4-5.1c0-25.8,0-51.6,0-77.4c0-9.2,8.2-14.3,16.5-10.3c4.1,2,4.2,5.8,4.2,9.6
		C1511,1410.2,1511.1,1423.4,1511,1436.6C1511,1436.6,1511,1436.6,1511,1436.6z"/>
	<path d="M954.3,1608.4c0-12.6,0-25.1,0-37.7c0-8.7,3.6-12.2,11.9-11.5c6.3,0.5,8.8,3.3,8.9,10.1c0.1,10.3,0,20.6,0,30.9
		c0,15.4,0.1,30.9,0.1,46.3c0,8.1-3,11.2-10.6,11.1c-7.3-0.1-10.2-3-10.2-10.6C954.2,1634.1,954.3,1621.3,954.3,1608.4
		C954.3,1608.4,954.3,1608.4,954.3,1608.4z"/>
	<path d="M2207.4,1535.6c0.2,10.9-13.3,19.4-23.3,14.7c-2.8-1.3-5.7-3.7-8.5-3.6c-3.4,0-6.9,1.9-10.1,3.4c-3,1.5-6.4,3.1-8.6,0.3
		c-1.7-2.1-2.6-6-1.9-8.5c2-6.9,7.2-11.8,13.9-14.1c2.3-0.8,5.8,0.1,8,1.4c6.5,3.7,12.4,4.5,19.3,0.4
		C2202.4,1525.8,2207.2,1528.9,2207.4,1535.6z"/>
	<path d="M488.3,1651c-0.2,3.4-0.1,6.9-0.5,10.2c-1.2,9.6-9.9,19.1-19.1,21c-3.2,0.7-5.8-0.2-7.2-3.1c-1.4-2.8-1-5.6,1.6-7.7
		c1.6-1.2,3.4-2.2,4.8-3.6c3.7-3.5,4.3-6.8,0.6-10.3c-4.6-4.3-5.2-9.5-4.2-14.9c0.4-2.4,2.6-6,4.5-6.4c4.9-1,10.1-1.1,15.1-0.5
		c1.6,0.2,3.6,3.5,4.1,5.7c0.7,3,0.2,6.2,0.2,9.4C488.2,1651,488.3,1651,488.3,1651z"/>
</g>
</svg>
